<svg width="97" height="13" viewBox="0 0 97 13" fill="none" xmlns="http://www.w3.org/2000/svg">
<g opacity="0.5">
<path d="M37.4839 7.641C38.1866 7.641 38.7563 7.11116 38.7563 6.45769C38.7563 5.80421 38.1866 5.27436 37.4839 5.27436C36.7812 5.27436 36.2114 5.80421 36.2114 6.45769C36.2114 7.11116 36.7812 7.641 37.4839 7.641Z" fill="#E25319"/>
<path d="M95.7275 7.641C96.4302 7.641 97 7.11116 97 6.45769C97 5.80421 96.4302 5.27436 95.7275 5.27436C95.0248 5.27436 94.4551 5.80421 94.4551 6.45769C94.4551 7.11116 95.0248 7.641 95.7275 7.641Z" fill="#E25319"/>
<path d="M23.741 7.641C24.4437 7.641 25.0134 7.11116 25.0134 6.45769C25.0134 5.80421 24.4437 5.27436 23.741 5.27436C23.0383 5.27436 22.4685 5.80421 22.4685 6.45769C22.4685 7.11116 23.0383 7.641 23.741 7.641Z" fill="#E25319"/>
<path d="M21.8796 2.33289C19.4146 2.33289 17.7131 4.26006 17.7131 6.55238C17.7131 8.88527 19.5673 10.7922 21.8796 10.7922H29.5145C29.689 10.7922 29.8417 10.9342 29.8417 11.0964V12.6788C29.8417 12.8613 29.689 12.983 29.5145 12.983H21.6396C18.1493 12.983 15.3353 10.1227 15.3353 6.57267V6.53209C15.3353 2.98204 18.1493 0.121716 21.6396 0.121716H29.5145C29.689 0.121716 29.8417 0.263717 29.8417 0.426006V2.00831C29.8417 2.19089 29.689 2.33289 29.5145 2.33289H21.8796Z" fill="#E25319"/>
<path d="M38.2338 0.0811433C41.7895 0.0811433 44.6908 2.77918 44.6908 6.0858V6.97839C44.6908 10.3053 41.7895 12.983 38.2338 12.983H36.6196C33.0639 12.983 30.1844 10.3053 30.1844 6.97839V6.0858C30.1844 2.77918 33.0639 0.0811433 36.6196 0.0811433H38.2338ZM42.2913 6.69438V6.47124C42.2913 4.0572 40.3062 2.10974 37.8412 2.10974H36.9904C34.5472 2.10974 32.5622 4.0572 32.5622 6.47124V6.69438C32.5622 9.10842 34.5472 11.0559 36.9904 11.0559H37.8412C40.3062 11.0559 42.2913 9.10842 42.2913 6.69438Z" fill="#E25319"/>
<path d="M60.7203 0.121716C60.8948 0.121716 61.0257 0.243432 61.0257 0.426006V10.2039C61.0257 11.7456 59.7822 12.983 58.2553 12.983H57.5354C56.1175 12.983 54.8304 12.1919 54.176 10.9342L49.9877 2.79947C49.9005 2.63718 49.7259 2.51546 49.5296 2.51546H49.2897C48.9406 2.51546 48.6571 2.81975 48.6571 3.1849V12.6788C48.6571 12.8613 48.5044 12.983 48.3298 12.983H46.5847C46.4102 12.983 46.2793 12.8613 46.2793 12.6788V2.9009C46.2793 1.35916 47.5009 0.121716 49.0279 0.121716H49.6605C50.9475 0.121716 52.1473 0.831726 52.7581 1.98803L57.1209 10.143C57.2082 10.3256 57.3827 10.427 57.579 10.427H58.0153C58.3643 10.4067 58.6479 10.1227 58.6479 9.75757V0.426006C58.6479 0.243432 58.7788 0.121716 58.9533 0.121716H60.7203Z" fill="#E25319"/>
<path d="M95.2418 0.121716C95.3945 0.121716 95.4817 0.263717 95.4163 0.385433L91.0971 10.2039C90.0718 12.4962 87.3887 13.6931 84.8801 12.5773C83.7894 12.0905 82.9604 11.1573 82.5023 10.0619L78.4449 0.385433C78.4013 0.263717 78.4885 0.121716 78.6194 0.121716H80.8008C81.019 0.121716 81.2153 0.243432 81.3025 0.446292L84.9019 9.29099C85.2509 10.143 86.0798 10.711 86.996 10.711C87.934 10.711 88.763 10.143 89.112 9.27071L92.6241 0.466577C92.7113 0.243432 92.9077 0.121716 93.1476 0.121716H95.2418Z" fill="#E25319"/>
<path d="M14.3755 0.020287C14.6155 0.020287 14.79 0.182574 14.79 0.405721C14.79 0.892585 14.79 1.35916 14.79 1.82574C14.79 2.04889 14.5936 2.23146 14.3537 2.23146H0.370839C0.152698 2.23146 0 2.06917 0 1.86631V0.344863C0 0.162288 0.152698 0 0.349025 0L14.3755 0.020287ZM14.2446 10.6907C14.4846 10.6907 14.6809 10.8733 14.6809 11.0964C14.6809 11.563 14.6591 12.0296 14.6591 12.4962C14.6591 12.7193 14.4628 12.8816 14.2228 12.8816H0.305398C0.130885 12.8816 0 12.7396 0 12.5773V8.01297C0 6.55238 1.26522 5.35551 2.85765 5.35551H10.2963C10.5362 5.35551 10.7325 5.53808 10.7325 5.76123C10.7325 6.22781 10.7325 6.69438 10.7107 7.16096C10.7107 7.38411 10.5144 7.56668 10.2963 7.56668L2.9449 7.5464C2.63951 7.5464 2.37774 7.78983 2.37774 8.07383V10.3662C2.37774 10.5487 2.50862 10.6907 2.68313 10.6907H14.2446Z" fill="#E25319"/>
<path fill-rule="evenodd" clip-rule="evenodd" d="M69.7974 0.000573086C71.725 -0.0148851 73.3638 0.605734 74.714 1.86129L76.0555 3.10882L75.0249 4.06723L71.1364 7.77778L71.1069 7.80583C70.4887 8.38065 69.4859 8.38065 68.8684 7.80583C68.2773 7.2562 68.2515 6.38024 68.7902 5.80199H68.7908C68.8154 5.77508 68.8413 5.74874 68.8684 5.72355C68.9004 5.69378 68.933 5.66573 68.9668 5.63939L71.7195 3.11168C71.1272 2.79908 70.466 2.63592 69.7364 2.62103C68.5974 2.59813 67.6253 2.96168 66.8207 3.70997C66.0154 4.45884 65.6251 5.36229 65.6497 6.42146C65.6743 7.48007 66.0887 8.38408 66.8939 9.13295L66.9093 9.14726C66.4057 8.84783 65.9624 8.47168 65.5961 8.03771C65.0414 7.37987 64.6647 6.58921 64.5268 5.72927C64.3784 4.80636 64.5169 3.88631 64.8962 3.06359C65.7507 1.2086 67.658 0.0171758 69.798 0L69.7974 0.000573086ZM75.9225 9.79136L74.6407 10.9834C73.2826 12.2463 71.6437 12.8893 69.7241 12.9122C67.8045 12.9351 66.1699 12.3185 64.8198 11.0629C63.4697 9.80738 62.8048 8.28103 62.8251 6.48501C62.8454 4.68842 63.5306 3.16206 64.8808 1.90708C64.9516 1.84124 65.0236 1.77712 65.0962 1.71414C64.8075 2.06854 64.5668 2.45385 64.3796 2.85977C63.9604 3.76951 63.807 4.7869 63.9708 5.80542C64.1241 6.75754 64.5409 7.6335 65.1547 8.36061C66.9266 10.4601 70.5842 11.1482 72.7014 9.17875L73.9826 7.98732L75.9225 9.79136ZM77.5755 4.914C78.4879 4.914 79.2273 5.6016 79.2273 6.45009C79.2273 7.29857 78.4879 7.98618 77.5755 7.98618C76.6631 7.98618 75.9237 7.29857 75.9237 6.45009C75.9237 5.6016 76.6631 4.914 77.5755 4.914Z" fill="#E25319"/>
</g>
</svg>
